<svg width="30" height="30" viewBox="0 0 30 30" fill="none" xmlns="http://www.w3.org/2000/svg">
<path d="M5.58342 18.6719L0.166748 19.6094V30H7.16675L10.0001 21.4062L21.6667 16.3281L11.0834 17.7344L12.5834 13.2031L5.58342 18.6719Z" fill="#EAEAEA"/>
<path d="M7.41667 0H0L12.9167 8.67187L15.5 15.7812L16.5833 11.3281L20.75 14.0625L16.8333 10.0781L19.5833 0.3125C19.1167 0.0625 17.5556 0 16.8333 0H9.83333L11.0833 3.90625L7.41667 0Z" fill="#EAEAEA"/>
<path d="M21.8333 10.4687L26.9166 3.98438C28.2499 4.92187 29.361 6.45833 29.7499 7.10937L21.8333 10.4687Z" fill="#EAEAEA"/>
<path d="M24.0833 22.1875L22.9167 14.2188L30 22.5C27.7333 26.6875 22.7222 28.8281 20.5 29.375L20.9167 20.9375L24.0833 22.1875Z" fill="#EAEAEA"/>
</svg>
