<svg width="41" height="42" viewBox="0 0 41 42" fill="none" xmlns="http://www.w3.org/2000/svg">
<g clip-path="url(#clip0_2_19)">
<path d="M25.8256 35.9882V30.087C25.8256 28.401 25.9942 27.7266 24.9826 26.7149C29.7036 26.2091 34.2559 24.3545 34.2559 16.5986C34.2538 14.5837 33.4678 12.6487 32.064 11.2033C32.7224 9.45307 32.6618 7.51354 31.8954 5.80789C31.8954 5.80789 30.0408 5.30207 25.9942 7.99975C22.5669 7.10714 18.9681 7.10714 15.5407 7.99975C11.4942 5.30207 9.63954 5.80789 9.63954 5.80789C8.8732 7.51354 8.81259 9.45307 9.47094 11.2033C8.06722 12.6487 7.28112 14.5837 7.27907 16.5986C7.27907 24.3545 11.8314 26.2091 16.5524 26.7149C15.5407 27.7266 15.5407 28.7382 15.7093 30.087V35.9882M15.7093 32.6161C8.45931 34.9766 8.45931 28.401 5.59302 27.558L15.7093 32.6161Z" stroke="#EAEAEA" stroke-width="1.68605" stroke-linecap="round" stroke-linejoin="round"/>
</g>
<defs>
<clipPath id="clip0_2_19">
<rect width="40.4652" height="40.4652" fill="white" transform="translate(0.53479 0.581055)"/>
</clipPath>
</defs>
</svg>
