<svg width="27" height="27" viewBox="0 0 27 27" fill="none" xmlns="http://www.w3.org/2000/svg">
<g clip-path="url(#clip0_2_93)">
<path d="M16.5142 23.0036V19.1696C16.5142 18.0742 16.6238 17.636 15.9665 16.9788C19.0337 16.6502 21.9913 15.4452 21.9913 10.4062C21.99 9.09718 21.4793 7.84001 20.5673 6.90089C20.995 5.76381 20.9556 4.5037 20.4577 3.39554C20.4577 3.39554 19.2528 3.06691 16.6238 4.81959C14.397 4.23966 12.0589 4.23966 9.83214 4.81959C7.20312 3.06691 5.99816 3.39554 5.99816 3.39554C5.50027 4.5037 5.46089 5.76381 5.88862 6.90089C4.97662 7.84001 4.4659 9.09718 4.46456 10.4062C4.46456 15.4452 7.42221 16.6502 10.4894 16.9788C9.83214 17.636 9.83214 18.2933 9.94168 19.1696V23.0036M9.94168 20.8128C5.23136 22.3464 5.23136 18.0742 3.36914 17.5265L9.94168 20.8128Z" stroke="#EAEAEA" stroke-width="1.09542" stroke-linecap="round" stroke-linejoin="round"/>
</g>
<defs>
<clipPath id="clip0_2_93">
<rect width="26.2902" height="26.2902" fill="white" transform="translate(0.0828857)"/>
</clipPath>
</defs>
</svg>
