<svg width="41" height="42" viewBox="0 0 41 42" fill="none" xmlns="http://www.w3.org/2000/svg">
<g clip-path="url(#clip0_2_12)">
<path d="M30.8721 7.32544H10.6394C8.77708 7.32544 7.26733 8.83518 7.26733 10.6975V30.9302C7.26733 32.7925 8.77708 34.3023 10.6394 34.3023H30.8721C32.7344 34.3023 34.2442 32.7925 34.2442 30.9302V10.6975C34.2442 8.83518 32.7344 7.32544 30.8721 7.32544Z" stroke="#EAEAEA" stroke-width="1.68605" stroke-linecap="round" stroke-linejoin="round"/>
<path d="M14.0115 19.1279V27.5582" stroke="#EAEAEA" stroke-width="1.68605" stroke-linecap="round" stroke-linejoin="round"/>
<path d="M14.0115 14.0696V14.0862" stroke="#EAEAEA" stroke-width="1.68605" stroke-linecap="round" stroke-linejoin="round"/>
<path d="M20.7557 27.5582V19.1279" stroke="#EAEAEA" stroke-width="1.68605" stroke-linecap="round" stroke-linejoin="round"/>
<path d="M27.4999 27.5582V22.5C27.4999 21.6057 27.1447 20.748 26.5123 20.1156C25.8799 19.4832 25.0222 19.1279 24.1278 19.1279C23.2335 19.1279 22.3758 19.4832 21.7434 20.1156C21.111 20.748 20.7557 21.6057 20.7557 22.5" stroke="#EAEAEA" stroke-width="1.68605" stroke-linecap="round" stroke-linejoin="round"/>
</g>
<defs>
<clipPath id="clip0_2_12">
<rect width="40.4652" height="40.4652" fill="white" transform="translate(0.523071 0.581055)"/>
</clipPath>
</defs>
</svg>
